<?xml version="1.0"?>
<svg xmlns="http://www.w3.org/2000/svg" viewBox="0 0 64 64" width="512px" height="512px" class=""><g><script xmlns="" class="active-path" style=""/><g id="Global"><path d="M32,2A30,30,0,1,0,62,32,30.034,30.034,0,0,0,32,2ZM60,32a28.076,28.076,0,0,1-.29,4H57.657a3.02,3.02,0,0,1-2.121-.878l-1.5-1.5A17.154,17.154,0,0,0,56,27,13.015,13.015,0,0,0,43,14c-.338,0-.669.025-1,.051V13.64a3.011,3.011,0,0,0-2.412-2.94l-1.78-.36A1.007,1.007,0,0,1,37,9.36v-4.9A28.04,28.04,0,0,1,60,32ZM55.013,47.924,53.1,46.554A2.988,2.988,0,0,0,51.36,46H51a1,1,0,0,1-1-1V44a3,3,0,0,0-.785-2.007c1.336-2.037,2.712-4.282,3.876-6.488l1.031,1.031A4.966,4.966,0,0,0,57.657,38h1.689A27.867,27.867,0,0,1,55.013,47.924ZM32,27a11,11,0,0,1,22,0c0,4.779-7.323,15.479-11,20.356C39.323,42.479,32,31.779,32,27ZM22,5.853V10a1,1,0,0,1-1,1,3.015,3.015,0,0,0-3,3v5a1,1,0,0,1-1,1H13a3,3,0,0,0-3,3,3.015,3.015,0,0,0,3,3H23a3,3,0,0,1,3,3v3a3,3,0,0,1-3,3H22a3.032,3.032,0,0,0-2.4,1.2l-2,2.663A2.993,2.993,0,0,0,17,40.67l0,7.913-1.65-1.65a2.026,2.026,0,0,1-.547-1.019l-.5-2.5A3.011,3.011,0,0,0,11.36,41H5.492A27.971,27.971,0,0,1,22,5.853ZM6.254,43H11.36a1,1,0,0,1,.979.806l.5,2.506a4.009,4.009,0,0,0,1.092,2.035L15.583,50A2,2,0,0,0,19,48.59V40.67a.972.972,0,0,1,.2-.6l2-2.665A1.017,1.017,0,0,1,22,37h1a5.006,5.006,0,0,0,5-5V29a5.006,5.006,0,0,0-5-5H13a.974.974,0,0,1-.712-.306A.957.957,0,0,1,12,23a1,1,0,0,1,1-1h4a3,3,0,0,0,3-3V14a.974.974,0,0,1,.306-.712A.957.957,0,0,1,21,13a3,3,0,0,0,3-3V5.171A27.852,27.852,0,0,1,35,4.163v5.2a3.011,3.011,0,0,0,2.412,2.94l1.78.36a1.007,1.007,0,0,1,.808.98v.723A13.014,13.014,0,0,0,30,27c0,3.779,3.522,10.019,6.785,14.993A3,3,0,0,0,36,44v2a1,1,0,0,1-1,1H33.36a2.006,2.006,0,0,0-1.281.462l-4.493,3.755a2.965,2.965,0,0,0-.771,3.65L28,57.236V59.71A28.082,28.082,0,0,1,6.254,43ZM32,60c-.673,0-1.339-.032-2-.079V57a1,1,0,0,0-.105-.447L28.6,53.969a.982.982,0,0,1,.259-1.211L33.36,49H35a3,3,0,0,0,3-3V44a.938.938,0,0,1,.023-.159c2.179,3.186,4,5.531,4.189,5.774a1,1,0,0,0,1.576,0c.19-.243,2.01-2.588,4.189-5.774A.938.938,0,0,1,48,44v1a3,3,0,0,0,3,3h.36a.993.993,0,0,1,.578.184l1.876,1.342A27.956,27.956,0,0,1,32,60Z" data-original="#000000" class="active-path" fill="#FFFFFF"/><path d="M42,21v1.1c-1.741.327-3,1.477-3,2.9,0,1.682,1.757,3,4,3,1.221,0,2,.592,2,1s-.779,1-2,1-2-.592-2-1a1,1,0,0,0-2,0c0,1.421,1.259,2.571,3,2.9V33a1,1,0,0,0,2,0V31.9c1.741-.327,3-1.477,3-2.9,0-1.682-1.757-3-4-3-1.221,0-2-.592-2-1s.779-1,2-1,2,.592,2,1a1,1,0,0,0,2,0c0-1.421-1.259-2.571-3-2.9V21a1,1,0,0,0-2,0Z" data-original="#000000" class="active-path" fill="#FFFFFF"/><path d="M52,27a9,9,0,1,0-9,9A9.011,9.011,0,0,0,52,27ZM36,27a7,7,0,1,1,7,7A7.008,7.008,0,0,1,36,27Z" data-original="#000000" class="active-path" fill="#FFFFFF"/></g></g> </svg>
